<svg width="576" height="369" viewBox="0 0 576 369" fill="none" xmlns="http://www.w3.org/2000/svg"><path d="M568.71 255.54c-.13.04-6.76 1.85-14.39 3.94 2.75-4.76 4.69-9.98 5.63-15.51 1.79-10.52-.31-20.66-5.9-29L576 166.79c-42.82-9.88-72.43 1.28-91.48 20.39-1.85-6.03-4.98-11.49-9.3-16.05-5.88-6.21-17.35-13.58-35.43-13.89l15.95-11.49H323.3L282.51 21.28l-40.79 124.47H109.28l15.56 11.21c-12.28 4.89-25.88 14.94-34.62 26.24-10.88 5.09-25.22 8.37-42.77 10.48l-20.39 2.45 25.05 48.86-7.02 12.17c-5.97 10.36-11.83 14.03-25.1 15.72L0 275.42l22.02 44.11c11.8-.4 22.95-1.96 30.63-5.15 16.86.27 34.47 1.95 51.53 3.57 18.2 1.73 35.73 3.4 51.92 3.4 8.4 0 16.44-.45 24.03-1.57l4.82-.71-9.34 28.52 106.92-77.03 106.92 77.03-10.54-32.15c28.01-5.16 48.83-2.55 70.81.24 20.59 2.61 44.01 5.72 77.66 1.62 0 0 41.45-61.04 41.63-61.31.18-.27.06-.53-.29-.43l-.01-.02Z" fill="#12173F"/><path d="M316.95 174.25c-.39-.9-.69-2.52-.99-4.29-.34-2.01-.69-4.18-1.18-5.63.53-12.9-3.63-16.64-7.01-18.75-1.27-.82-1.91-1.41-3.17-2.14l-.05-.59c-.98-.92-2.96-1.91-4.59-2.64-.51-.51-.26-1.6.08-2.02 1.11-.15 2.57-2.61 3.78-5.14h.09c.88 0 1.19-.88 1.49-1.39 1.02-1.62 2.12-3.02.7-3.95 3.2-5.67 1.15-9.51-.58-9.66-.71-1.42-1.92-2.31-4.07-3.07 0 0-.59-.3-1.9-.3h-.21c-1.47.04-2.27.3-2.27.3-4.56 1.73-5.21 3.7-5.37 9.97h-.66c-.77 0-1.6.28-1.17 3.18 0 0 .26 2.15 1.1 2.15l.23-.06c-.36 2.46-.44 4.07-.74 5.16-.51 1.89-1.67 2.18-6.12 2.37l-.34.49c-7 .68-9.2-.2-15.09 11.7 0 0-1.52 3.68-1.98 5.2-1.46 3.03-4.98 9.69-6.04 14.02-.34 1.46-1.03 1.92-.07 4.03 1.22 2.74-.48 3.67 4.86 3.67.61 0 1.32-.02 2.13-.04v1.79s-2.11 1.8-2.54 2.9c-.45 1.08-1.66 6.51-1.61 9.04.13 6.7 5.64 12.29 7.29 18.97l3.62.51c2.08 4.63 11.01 17.19 12.83 18.85.43 1.16 2.69 2.61 4.02 4.03 1.1 1.03 7.55 8.04 15.12 12.35-.05 0 1.22 2.51 1.83 4.52-2.51 2.01 2.36 5.67 3.83 11.74.09.79-1.41 1.63.84 3.62-.06 2.78-.34 5.11-.59 7.15-.25 2.04-.44 3.78-.33 5.2.15 1.83.83 3.2 2.7 4.2 0 0 .43.25.94.25h.12c3.1 0 3.72-2.92 4.11-4.22 1.08-3.62-1.09-8.04-1.93-10.98l.2-.73c.33-.57-.33-1.87-.33-1.87-.73-.66-.94-4.1-1.33-5.63-.65-2.62 1.14-7.1 1.14-8.61 0-1.51-1.14-3.6-3.27-6.27-.5-.57-2.03-13.6-3.4-16.9-1.91-4.55-2.51-3.84-4.73-9.24-1.77-3.84-.39-9.46-4.33-22.53l.87-.82s-3.11-11.33-4.14-14.43c-1.03-3.1-2.83-3.32-2.83-3.32l.09-1.59c.14-.48 3.43-8.99 4.04-10.13l.07-.13c.01-.14 2.08-1.58 3.65-2.5.77-.46 1.43-.81 1.66-.81l.09.06c.24 1.22.91 5.05 1.63 8.68.3 1.54.61 3.04.9 4.29.32 1.42.62 2.51.82 2.98.59 1.22 2.04 4.05 3.39 6.86l.43.89c.59 1.24 1.13 2.45 1.54 3.47-2.02.49-3.83 1.46-5.33 2.8l-.1.08c-.41.37-.77.78-1.13 1.2l-.37.44c-.29.39-.57.8-.82 1.22l-.36.67c-.22.41-.42.83-.58 1.26l-.26.84c-.12.43-.27.85-.34 1.3-.06.32-.07.65-.1.97-.04.41-.12.82-.12 1.24 0 6.85 5.59 12.42 12.47 12.42 1.26 0 2.44-.24 3.58-.58l.41-.13c.48-.16.95-.34 1.4-.55l.63-.35c.43-.23.86-.48 1.26-.76.49-.36.96-.73 1.39-1.14l.43-.46c.39-.4.75-.84 1.08-1.3l.27-.41c.4-.59.74-1.21 1.02-1.87l.03-.06c.62-1.48.98-3.11.98-4.82 0-1.71-.34-3.23-.93-4.67l-.24-.52c-.22-.48-.48-.95-.78-1.42l-.35-.55-.18-.26c0-1.59-1.47-1.8-2.24-2.26l-.17-.14-.14-.12c-.51-.59.5-.93-2.99-1.72-.3-.16-.56-1.28-.77-2.48-.25-1.44-.41-2.96-.41-2.96l-.09-.47c-.56-3-1.67-5.22-3.35-8.51l-.07-.18v.04ZM535 279.64l-16.75 24.67c-58.02 6.17-86.42-13.4-144.53-1.94 3.26-45.87 37.06-61.42 54.35-73.33 18.29-12.61 19.07-18.91 19.76-23.8.69-4.89-2.11-12.42-12.7-12.42s-20.77 7.82-26.25 23.89l-17.53-12.28c8.68-19.93 24.33-32.84 47.17-32.84 22.84 0 34.54 14.58 33.22 33.02-1.2 16.76-10.8 27.65-29.09 40.71-15.61 11.15-28.88 16.98-37.52 36.47 35.26-5.13 71.82 14.21 129.87-2.15Zm-32.44-65.66c3.16-1.28 8.07-3.34 14.26-3.34 19.6 0 32.18 13.84 29.27 30.99-2.91 17.14-20.47 30.84-40.31 30.84-19.84 0-35.47-17.21-29.9-42.69 2.84-12.99 11.91-28.8 26.35-39.31 13.88-10.1 32.78-15.25 53.16-12.37l-8.26 18.16c-25.36-2.59-38.2 7.63-44.58 17.73l.01-.01Zm-5.46 24.7c-1.2 7.73 4.1 14 11.83 14s14.97-6.27 16.16-14c1.2-7.73-4.1-14-11.83-14s-14.97 6.27-16.16 14ZM57.88 263.97l26.42-45.69c-8.05 3.73-16.95 6.65-25 8.92l-10.04-19.57c18.18-2.18 35.04-5.92 49.81-13.56 9.85-13.47 20.64-22.21 29.26-25.12l8.24 16.38c-3.12 5.92-11.08 13.29-22.72 21.48l-39.11 67.71c-2.37 4.1-4.73 7.65-7.1 10.65 28.22-.46 74.1 5.28 123.81-4.28l-16.81 24.67c-34.47 5.1-79.82-5-124.9-5.28-5.78 2.55-12.12 4.1-18.84 4.55l-9-18.02c16.48-2.1 27.17-7.56 35.98-22.84Zm66.08-19.02c-4.46.27-8.92.54-13.47.91l10.2-16.29c4.28-.27 8.65-.45 13.29-.73 4.64-7.37 9.47-14.56 15.02-21.3 16.11-19.48 35.4-27.31 58.97-27.21l9.01 17.57-25.67 51.24c-3.64 7.19-6.37 14.29-7.37 19.84l-24.21 1.91c3-6.92 5.92-13.1 10.65-22.48l2.64-5.19-27.85.82c-5.1 8.55-10.38 17.48-16.93 26.4l-23.75 1c7.64-8.55 13.84-17.57 19.48-26.48m56.96-17.67 15.11-30.03c-11.74 1.27-23.57 7.64-33.4 20.2-2.73 3.46-5.28 7.01-7.65 10.65 7.1-.18 17.57-.46 25.94-.82ZM333.99 176.43c-1.86.38-4.63.8-6.52 1.07 1.1.22 6.04 1 8.2 1.51 6.84 1.65 9.5 4.34 11.11 10.53.96 3.7 1.3 7.5 1.71 11.28.07.66.13 1.3.22 1.96.1-.77.18-1.54.27-2.31.49-4.24.84-8.62 2.19-12.68 2.88-8.61 10.37-8.83 18.89-10.16l.57-.11c-2.22-.24-4.59-.58-6.76-.99-8.14-1.58-11.49-3.91-13.31-11.39l-.11-.5c-.4-1.76-.69-3.54-.92-5.33-.29-2.33-.52-4.69-.81-7.01-.28 2.31-.49 4.67-.79 7.01-.23 1.8-.53 3.57-.95 5.33-.1.43-.17.86-.29 1.29-1.87 6.84-5.26 9.02-12.69 10.51M263.8 229.3c-.18-.63-.25-1.28-.36-1.92-.32-1.74-.53-3.49-.77-5.23-.2 1.48-.37 2.97-.6 4.46-.15 1.06-.33 2.11-.63 3.13-1.12 3.73-3.16 4.97-7.52 5.8l-.24.05c-.48.09-.96.13-1.45.21-.57.08-1.13.16-1.7.24l-1.12.16c.43.07.85.14 1.28.2.67.09 1.32.21 1.97.31.66.1 1.31.17 1.96.31h.07c4.19.93 5.81 2.43 6.8 5.87.69 2.41.85 4.91 1.18 7.37.41-2.76.53-5.67 1.5-8.34 1.76-4.79 6.35-4.9 11.55-5.66l.26-.07c-1.36-.13-2.72-.31-4.05-.55-4.97-.88-7.02-2.18-8.14-6.34M242.82 198.85c-.26-.94-.37-1.9-.54-2.85-.47-2.58-.78-5.19-1.14-7.77-.29 2.19-.55 4.4-.9 6.62-.23 1.58-.49 3.14-.94 4.65-1.66 5.54-4.7 7.38-11.17 8.62l-.36.08c-.72.13-1.43.2-2.15.31-.85.11-1.67.24-2.52.36l-1.66.24c.63.1 1.27.21 1.9.29.99.13 1.95.31 2.93.46.98.15 1.95.26 2.91.45l.1.02c6.23 1.37 8.63 3.59 10.1 8.7 1.02 3.58 1.27 7.3 1.76 10.94.62-4.1.78-8.42 2.23-12.39 2.62-7.12 9.43-7.28 17.15-8.4l.39-.1c-2.02-.2-4.03-.46-6.02-.81-7.38-1.3-10.42-3.24-12.08-9.41" fill="#fff"/><path d="M447.54 286.72c-15.39-1.88-28.69-3.51-41.93-1.58l-6.06.88 2.48-5.6c7.46-16.83 18.1-23.96 30.43-32.22 2.66-1.78 5.41-3.62 8.22-5.63 4.29-3.06 7.99-5.94 11.16-8.72h-24.89c-1.3.85-2.65 1.72-4.05 2.61-17.47 11.19-41.15 26.35-45.39 61.76 12.14-2.13 22.96-2.93 33.06-2.93 14.58 0 27.7 1.66 41.23 3.38 19.21 2.44 39.07 4.96 64.54 2.43l10.84-15.96c-31.96 7.4-57.17 4.32-79.63 1.57l-.01.01Zm95.39-52.87h-14.5c.28 1.71.29 3.51 0 5.35-1.46 9.46-10.03 16.86-19.51 16.86-4.71 0-8.9-1.86-11.78-5.22-2.92-3.41-4.13-7.91-3.39-12.67.23-1.5.66-2.94 1.23-4.31h-16.39c-1.43 9.91.6 18.81 5.86 25.35 5.05 6.28 12.83 9.88 21.33 9.88 18.06 0 34.3-12.31 36.97-28.02.42-2.47.47-4.89.18-7.21v-.01Z" fill="url(#paint0_linear_44_22758)"/><path d="M93.45 289.09c-9.87-.35-18.39-.66-25.75-.54l-7.24.12 4.37-5.54c2.25-2.86 4.55-6.31 6.83-10.25l22.54-39.03H79.32l-18.36 31.76c-8.03 13.93-17.75 20.89-33.84 23.82l5.9 11.81c5.39-.59 10.51-1.95 15.26-4.04l.71-.31h.78c18.59.12 37.1 1.88 54.99 3.58 24.77 2.35 48.21 4.58 67.84 1.96l11.83-16.74c-33.82 5.45-65.3 4.33-90.97 3.41l-.01-.01Zm28.54-55.24-5.1 8.15c2.22-.15 4.48-.29 6.86-.43l6.6-.4-3.53 5.59c-3.79 5.99-8.7 13.45-14.76 20.97l14.41-.61c5.83-8.09 10.66-16.19 15.34-24.05l1.41-2.36 35.42-1.07-5.23 10.29c-3.41 6.76-5.93 11.97-8.27 17.13l16.03-1.27c1.58-6.47 4.67-13.33 7.13-18.19l6.89-13.75h-73.2Z" fill="url(#paint1_linear_44_22758)"/><path d="m254.86 163.88 27.65-84.39 9.97 30.43c.69-.36 1.43-.7 2.26-1.01l.27-.1c.44-.14 1.48-.43 3.03-.56l-15.53-47.39-31.86 97.21H147.48l24.23 17.46c2.07-.96 4.17-1.83 6.32-2.59l-12.58-9.06h89.41Zm86-.21c.06-.2.08-.35.11-.49l.11-.53c.34-1.46.61-2.94.82-4.57h-20.71c.14 1.65.2 3.44.16 5.41.03.13.06.26.1.39h19.36l.06-.21h-.01Zm14.67-5.59c.22 1.66.48 3.17.79 4.56l.12.53c.06.25.12.48.18.71h42.94l-44.03 31.72c-.14 1.07-.26 2.15-.38 3.27l-.22 1.97c-.08.68-.15 1.37-.24 2.04l-.07.52 62.91-45.32h-62Zm-73.02 90.13-72.37 52.13 21.17-64.62c-.34-2.77-.65-5.26-.86-6.67-.26-1.77-.86-3.16-1.67-4.26l-29.71 90.66 83.43-60.1 23.37 16.83c.03-.22.05-.44.08-.66.16-1.29.33-2.72.44-4.28-.48-.82-.81-1.68-.99-2.55l-22.9-16.49.01.01Zm61.29-37.01-.85-6.54-15.72 11.32 27.64 84.36-28.66-20.65c-.63 1.98-1.62 3.59-3.06 4.95l42.78 30.82-31.87-97.24 9.73-7.01.01-.01Z" fill="#C8102E"/><defs><linearGradient id="paint0_linear_44_22758" x1="287.994" y1="8.18985" x2="287.994" y2="333.056" gradientUnits="userSpaceOnUse"><stop stop-color="#4891CE"/><stop offset=".63" stop-color="#4891CE" stop-opacity="0"/></linearGradient><linearGradient id="paint1_linear_44_22758" x1="287.983" y1="10.007" x2="287.983" y2="356.757" gradientUnits="userSpaceOnUse"><stop stop-color="#4891CE"/><stop offset=".63" stop-color="#4891CE" stop-opacity="0"/></linearGradient></defs></svg>